<svg xmlns="http://www.w3.org/2000/svg" width="66" height="66"><path d="M 47.959 9.018 L 37.392 9.018 L 41.555 0.692 C 42.017 -0.231 43.335 -0.231 43.796 0.692 Z" fill="rgb(125,212,155)"></path><path d="M 47.959 9.018 L 37.392 9.018 L 41.555 0.692 C 42.017 -0.231 43.335 -0.231 43.796 0.692 Z" fill="rgb(0,0,0)" opacity="0.3"></path><path d="M 38.688 9.423 L 29.811 15.154 L 28.792 5.902 C 28.679 4.875 29.786 4.161 30.675 4.686 Z" fill="rgb(125,212,155)"></path><path d="M 38.688 9.423 L 29.811 15.154 L 28.792 5.902 C 28.679 4.875 29.786 4.161 30.675 4.686 Z" fill="rgb(0,0,0)" opacity="0.3"></path><path d="M 30.385 16.264 L 29.43 26.787 L 21.514 21.889 C 20.637 21.345 20.756 20.033 21.717 19.657 Z" fill="rgb(125,212,155)"></path><path d="M 30.385 16.264 L 29.43 26.787 L 21.514 21.889 C 20.637 21.345 20.756 20.033 21.717 19.657 Z" fill="rgb(0,0,0)" opacity="0.3"></path><path d="M 28.357 27.897 L 26.869 37.454 L 19.924 32.517 C 19.154 31.97 19.34 30.778 20.24 30.49 Z" fill="rgb(125,212,155)"></path><path d="M 28.357 27.897 L 26.869 37.454 L 19.924 32.517 C 19.154 31.97 19.34 30.778 20.24 30.49 Z" fill="rgb(0,0,0)" opacity="0.3"></path><path d="M 24.514 42.191 L 22.126 51.123 L 16.029 45.722 C 15.353 45.123 15.651 44.009 16.535 43.828 Z" fill="rgb(125,212,155)"></path><path d="M 24.514 42.191 L 22.126 51.123 L 16.029 45.722 C 15.353 45.123 15.651 44.009 16.535 43.828 Z" fill="rgb(0,0,0)" opacity="0.3"></path><path d="M 21.961 54.64 L 15.698 59.464 L 14.365 52.629 C 14.217 51.871 14.998 51.269 15.693 51.606 Z" fill="rgb(125,212,155)"></path><path d="M 21.961 54.64 L 15.698 59.464 L 14.365 52.629 C 14.217 51.871 14.998 51.269 15.693 51.606 Z" fill="rgb(0,0,0)" opacity="0.3"></path><path d="M 8.39 51.155 L 4.671 45.169 L 10.853 44.597 C 11.538 44.533 12.002 45.279 11.641 45.866 Z" fill="rgb(125,212,155)"></path><path d="M 8.39 51.155 L 4.671 45.169 L 10.853 44.597 C 11.538 44.533 12.002 45.279 11.641 45.866 Z" fill="rgb(0,0,0)" opacity="0.3"></path><path d="M 47.86 42.191 C 47.575 42.191 47.288 42.186 46.997 42.176 C 44.723 42.103 42.94 40.201 43.013 37.928 C 43.085 35.655 44.986 33.87 47.261 33.944 C 53.742 34.154 56.143 30.899 57.64 27.689 C 58.601 25.628 61.051 24.736 63.113 25.697 C 65.174 26.659 66.066 29.109 65.105 31.17 C 61.693 38.486 55.893 42.191 47.86 42.191 Z" fill="rgb(125,212,155)"></path><path d="M 47.86 42.191 C 47.575 42.191 47.288 42.186 46.997 42.176 C 44.723 42.103 42.94 40.201 43.013 37.928 C 43.085 35.655 44.986 33.87 47.261 33.944 C 53.742 34.154 56.143 30.899 57.64 27.689 C 58.601 25.628 61.051 24.736 63.113 25.697 C 65.174 26.659 66.066 29.109 65.105 31.17 C 61.693 38.486 55.893 42.191 47.86 42.191 Z" fill="rgb(0,0,0)" opacity="0.15"></path><g transform="translate(0.509 7.268)"><path d="M 51.081 52.684 L 49.755 52.684 L 49.755 51.162 C 49.755 47.34 46.656 44.242 42.834 44.242 C 39.012 44.242 35.914 47.34 35.914 51.162 L 35.914 53.486 C 35.914 56.383 38.262 58.732 41.16 58.732 L 54.598 58.732 C 55.297 58.732 55.864 58.165 55.864 57.466 C 55.863 54.825 53.722 52.684 51.081 52.684 Z" fill="rgb(125,212,155)"></path><path d="M 59.314 7.544 C 58.708 7.294 58.233 6.81 57.957 6.215 C 56.253 2.546 52.537 0 48.225 0 L 38.422 0 C 32.497 0 27.693 4.803 27.693 10.729 C 27.693 10.774 27.693 10.82 27.694 10.865 C 27.761 16.234 26.944 21.576 25.258 26.674 L 17.968 48.71 C 17.774 49.294 17.229 49.688 16.614 49.688 C 13.335 49.688 10.329 47.863 8.818 44.953 L 4.672 36.975 C 4.248 36.158 3.418 35.607 2.497 35.593 C 0.965 35.571 -0.211 36.937 0.032 38.444 L 1.355 46.657 C 2.477 53.616 8.483 58.732 15.531 58.732 L 35.851 58.732 C 42.445 58.732 47.791 53.386 47.791 46.792 L 47.791 23.029 C 47.791 22.161 48.495 21.457 49.363 21.457 L 56.558 21.457 C 60.551 21.457 63.787 18.221 63.787 14.229 C 63.787 11.212 61.94 8.627 59.314 7.544 Z" fill="rgb(125,212,155)"></path></g><path d="M 43.01 7.269 L 38.93 7.269 C 33.005 7.269 28.202 12.072 28.202 17.997 C 28.202 18.043 28.202 18.088 28.203 18.134 C 28.27 23.502 27.453 28.845 25.767 33.942 L 18.476 55.978 C 18.283 56.562 17.737 56.956 17.122 56.956 C 13.844 56.956 10.838 55.131 9.326 52.222 L 5.181 44.244 C 4.756 43.426 3.927 42.875 3.006 42.862 C 1.473 42.839 0.298 44.205 0.541 45.712 L 1.864 53.926 C 2.985 60.884 8.991 66 16.039 66 L 33 66 C 28.417 66 27.557 59.699 28.784 57.607 C 35.771 45.702 34.78 23.329 34.78 17.043 C 34.78 10.756 41.154 7.269 43.01 7.269 Z" fill="rgb(0,0,0)" opacity="0.05"></path><g transform="translate(7.28 25.311)"><path d="M 24.781 0.939 C 24.781 0.421 25.202 0 25.721 0 C 26.239 0 26.66 0.421 26.66 0.939 C 26.66 1.458 26.239 1.879 25.721 1.879 C 25.202 1.879 24.781 1.458 24.781 0.939 Z" fill="rgb(0,0,0)"></path><path d="M 29.231 5.076 C 29.231 4.557 29.652 4.137 30.17 4.137 C 30.689 4.137 31.11 4.557 31.11 5.076 C 31.11 5.595 30.689 6.015 30.17 6.015 C 29.652 6.015 29.231 5.595 29.231 5.076 Z" fill="rgb(0,0,0)"></path><path d="M 20.922 21.345 C 20.922 20.827 21.342 20.406 21.861 20.406 C 22.38 20.406 22.8 20.827 22.8 21.345 C 22.8 21.864 22.38 22.285 21.861 22.285 C 21.342 22.285 20.922 21.864 20.922 21.345 Z" fill="rgb(0,0,0)"></path><path d="M 6.501 35.092 C 6.501 34.573 6.922 34.152 7.44 34.152 C 7.959 34.152 8.38 34.573 8.38 35.092 C 8.38 35.611 7.959 36.031 7.44 36.031 C 6.922 36.031 6.501 35.611 6.501 35.092 Z" fill="rgb(0,0,0)"></path><path d="M 0 30.474 C 0 29.956 0.421 29.535 0.939 29.535 C 1.458 29.535 1.879 29.956 1.879 30.474 C 1.879 30.993 1.458 31.414 0.939 31.414 C 0.421 31.414 0 30.993 0 30.474 Z" fill="rgb(0,0,0)"></path></g><path d="M 43.01 14.902 C 42.476 14.902 42.044 14.469 42.044 13.935 L 42.044 12.347 C 42.044 11.813 42.476 11.38 43.01 11.38 C 43.544 11.38 43.977 11.813 43.977 12.347 L 43.977 13.935 C 43.977 14.191 43.875 14.437 43.694 14.618 C 43.513 14.8 43.267 14.902 43.01 14.902 Z M 52.672 14.902 C 52.138 14.902 51.705 14.469 51.705 13.935 L 51.705 12.347 C 51.705 11.813 52.138 11.38 52.672 11.38 C 53.206 11.38 53.639 11.813 53.639 12.347 L 53.639 13.935 C 53.639 14.191 53.537 14.437 53.356 14.618 C 53.174 14.8 52.928 14.902 52.672 14.902 Z M 57.001 24.977 C 55.754 24.977 54.569 24.437 53.75 23.497 C 53.402 23.094 53.446 22.486 53.847 22.136 C 54.248 21.787 54.856 21.827 55.208 22.226 C 55.66 22.746 56.314 23.044 57.001 23.044 C 57.688 23.044 58.342 22.746 58.794 22.226 C 59.146 21.827 59.754 21.787 60.155 22.136 C 60.557 22.486 60.6 23.094 60.252 23.497 C 59.434 24.437 58.248 24.977 57.001 24.977 Z" fill="rgb(72,83,88)"></path><path d="M 43.502 34.604 C 41.057 34.604 39.001 36.437 38.721 38.865 L 37.331 50.914 C 37.019 53.622 34.726 55.665 32 55.665 C 28.959 55.665 26.494 58.131 26.494 61.171 C 26.494 63.838 28.656 66 31.323 66 L 36.36 66 C 42.954 66 48.3 60.654 48.3 54.06 L 48.3 39.048 C 48.112 36.561 46.036 34.604 43.502 34.604 Z" fill="rgb(255,255,255)" opacity="0.5"></path><path d="M 37.45 49.884 L 48.3 49.884 L 48.3 47.95 L 37.673 47.95 Z M 38.574 40.135 L 38.351 42.068 L 48.3 42.068 L 48.3 40.135 Z" fill="rgb(0,0,0)" opacity="0.1"></path><path d="M 27.736 41.388 C 27.64 41.388 27.543 41.385 27.445 41.378 C 19.107 40.796 13.467 36.619 10.682 28.963 C 9.904 26.826 11.006 24.463 13.143 23.685 C 15.281 22.908 17.644 24.01 18.421 26.147 C 20.509 31.884 24.444 32.912 28.018 33.161 C 30.287 33.32 31.998 35.287 31.84 37.556 C 31.688 39.727 29.88 41.388 27.736 41.388 Z" fill="rgb(125,212,155)"></path><path d="M 27.736 41.388 C 27.64 41.388 27.543 41.385 27.445 41.378 C 19.107 40.796 13.467 36.619 10.682 28.963 C 9.904 26.826 11.006 24.463 13.143 23.685 C 15.281 22.908 17.644 24.01 18.421 26.147 C 20.509 31.884 24.444 32.912 28.018 33.161 C 30.287 33.32 31.998 35.287 31.84 37.556 C 31.688 39.727 29.88 41.388 27.736 41.388 Z" fill="rgb(0,0,0)" opacity="0.15"></path><path d="M 37.754 59.952 L 36.427 59.952 L 36.427 58.431 C 36.427 54.609 33.328 51.51 29.506 51.51 C 25.684 51.51 22.586 54.609 22.586 58.431 L 22.586 60.754 C 22.586 63.651 24.934 66 27.832 66 L 41.27 66 C 41.969 66 42.536 65.433 42.536 64.735 C 42.535 62.093 40.394 59.952 37.754 59.952 Z" fill="rgb(125,212,155)"></path><path d="M 37.754 59.952 L 36.427 59.952 L 36.427 58.431 C 36.427 54.609 33.328 51.51 29.506 51.51 C 25.684 51.51 22.586 54.609 22.586 58.431 L 22.586 60.754 C 22.586 63.651 24.934 66 27.832 66 L 41.27 66 C 41.969 66 42.536 65.433 42.536 64.735 C 42.535 62.093 40.394 59.952 37.754 59.952 Z" fill="rgb(0,0,0)" opacity="0.15"></path></svg>