<svg xmlns="http://www.w3.org/2000/svg" width="66" height="66"><path d="M 40.228 21.621 L 44.879 46.735 C 44.904 46.875 44.988 46.997 45.11 47.071 C 45.231 47.145 45.378 47.164 45.514 47.123 L 50.333 45.671 C 50.591 45.594 50.741 45.326 50.673 45.065 L 44.522 21.622 Z M 40.228 21.621" fill="rgb(249,167,167)"></path><path d="M 41.369 21.633 L 51.464 35.944 C 51.543 36.056 51.664 36.131 51.8 36.15 C 51.936 36.17 52.074 36.133 52.181 36.049 L 55.055 33.787 C 55.162 33.703 55.23 33.58 55.244 33.446 C 55.258 33.311 55.217 33.176 55.13 33.073 L 44.449 20.304 Z M 41.369 21.633" fill="rgb(249,167,167)"></path><path d="M 45.408 47.689 C 44.909 47.689 44.479 47.333 44.387 46.842 L 39.664 21.743 C 39.634 21.586 39.676 21.423 39.778 21.3 C 39.88 21.177 40.031 21.105 40.191 21.104 L 44.486 21.092 L 44.487 21.092 C 44.732 21.092 44.945 21.256 45.008 21.492 L 51.226 44.917 C 51.372 45.458 51.061 46.017 50.525 46.178 L 45.711 47.644 C 45.613 47.674 45.511 47.689 45.408 47.689 Z M 40.842 22.18 L 45.438 46.601 L 50.176 45.159 L 44.074 22.171 Z M 40.842 22.18" fill="rgb(55,98,204)"></path><path d="M 51.876 36.682 C 51.828 36.682 51.779 36.679 51.731 36.672 C 51.449 36.631 51.196 36.477 51.03 36.245 L 40.894 21.963 C 40.8 21.831 40.771 21.663 40.814 21.507 C 40.858 21.351 40.97 21.222 41.119 21.157 L 44.194 19.82 C 44.413 19.724 44.668 19.784 44.821 19.967 L 55.54 32.704 C 55.722 32.922 55.807 33.196 55.778 33.478 C 55.75 33.76 55.612 34.012 55.39 34.189 L 52.522 36.458 C 52.338 36.603 52.111 36.682 51.876 36.682 Z M 42.157 21.881 L 51.886 35.588 L 54.69 33.368 L 44.257 20.968 Z M 42.157 21.881" fill="rgb(55,98,204)"></path><path d="M 28.781 51.161 C 28.57 51.13 28.361 51.089 28.154 51.04 C 26.651 50.689 25.322 49.807 24.365 48.589 L 23.403 47.366 C 23.261 47.185 23.167 46.973 23.119 46.749 C 20.179 47.01 17.594 48.504 15.873 50.714 L 15.872 50.714 C 15.866 50.722 15.86 50.731 15.853 50.739 C 15.797 50.812 15.742 50.885 15.689 50.96 C 15.655 51.005 15.621 51.051 15.588 51.098 C 15.537 51.171 15.487 51.244 15.437 51.318 C 15.355 51.441 15.276 51.565 15.199 51.69 C 15.122 51.817 15.047 51.945 14.975 52.075 C 14.943 52.131 14.913 52.189 14.883 52.246 C 14.843 52.321 14.804 52.395 14.766 52.471 C 14.736 52.531 14.707 52.593 14.678 52.654 C 14.644 52.728 14.607 52.802 14.574 52.876 C 14.541 52.949 14.511 53.024 14.48 53.098 C 14.431 53.216 14.383 53.335 14.338 53.455 C 14.308 53.537 14.276 53.619 14.247 53.702 C 14.224 53.768 14.204 53.834 14.182 53.9 C 14.157 53.98 14.13 54.06 14.106 54.141 C 14.086 54.208 14.068 54.275 14.049 54.343 C 14.026 54.425 14.005 54.507 13.984 54.589 C 13.967 54.657 13.951 54.725 13.936 54.794 C 13.916 54.878 13.898 54.962 13.881 55.047 C 13.849 55.202 13.821 55.358 13.797 55.515 C 13.787 55.581 13.777 55.647 13.767 55.713 C 13.755 55.807 13.744 55.902 13.734 55.996 C 13.727 56.058 13.72 56.12 13.714 56.183 C 13.705 56.289 13.698 56.395 13.692 56.501 C 13.688 56.554 13.684 56.607 13.681 56.66 C 13.674 56.821 13.67 56.981 13.67 57.142 L 13.67 58.73 C 13.67 58.862 13.722 58.99 13.816 59.084 C 13.91 59.177 14.037 59.23 14.17 59.23 L 46.525 59.23 L 46.525 57.142 C 46.525 56.978 46.52 56.814 46.513 56.651 C 46.511 56.596 46.506 56.541 46.502 56.486 C 46.496 56.38 46.489 56.274 46.479 56.168 C 46.473 56.102 46.466 56.036 46.458 55.971 C 46.44 55.807 46.418 55.643 46.392 55.48 C 46.378 55.395 46.364 55.309 46.348 55.224 C 46.334 55.15 46.32 55.076 46.305 55.003 C 46.289 54.925 46.272 54.848 46.254 54.77 C 46.235 54.692 46.217 54.614 46.198 54.536 C 46.182 54.473 46.164 54.411 46.146 54.348 C 46.053 54.009 45.943 53.676 45.816 53.348 C 45.805 53.321 45.795 53.293 45.784 53.266 C 45.741 53.158 45.696 53.052 45.65 52.946 C 45.637 52.916 45.624 52.886 45.61 52.857 C 45.562 52.749 45.512 52.643 45.46 52.537 C 45.449 52.513 45.437 52.49 45.425 52.466 C 45.37 52.355 45.312 52.244 45.252 52.134 L 45.236 52.105 C 43.535 49.006 40.315 46.87 36.585 46.716 L 35.18 48.529 C 33.663 50.488 31.222 51.527 28.781 51.161 Z M 28.781 51.161" fill="rgb(70,113,198)"></path><path d="M 46.525 59.769 L 14.17 59.769 C 13.597 59.769 13.131 59.303 13.131 58.73 L 13.131 57.142 C 13.131 56.972 13.136 56.804 13.143 56.636 C 13.145 56.597 13.147 56.559 13.15 56.52 L 13.154 56.467 C 13.16 56.357 13.168 56.246 13.178 56.135 C 13.182 56.084 13.188 56.034 13.193 55.984 L 13.199 55.937 C 13.209 55.838 13.221 55.739 13.234 55.64 C 13.243 55.57 13.255 55.5 13.266 55.431 C 13.304 55.177 13.353 54.924 13.411 54.674 C 13.427 54.601 13.444 54.53 13.461 54.459 C 13.483 54.371 13.507 54.285 13.531 54.199 C 13.554 54.112 13.572 54.049 13.59 53.987 C 13.613 53.912 13.637 53.837 13.661 53.763 L 13.687 53.68 C 13.704 53.628 13.721 53.576 13.739 53.525 C 13.764 53.452 13.791 53.381 13.818 53.309 L 13.835 53.265 C 13.882 53.138 13.931 53.014 13.984 52.889 L 14.007 52.833 C 14.031 52.773 14.056 52.714 14.082 52.656 C 14.109 52.595 14.138 52.536 14.167 52.476 L 14.21 52.384 C 14.234 52.332 14.259 52.28 14.285 52.229 C 14.321 52.156 14.359 52.084 14.397 52.013 L 14.421 51.967 C 14.448 51.916 14.475 51.865 14.503 51.814 C 14.547 51.734 14.593 51.656 14.638 51.579 C 14.672 51.521 14.705 51.464 14.74 51.408 C 14.82 51.276 14.904 51.146 14.99 51.017 C 15.042 50.941 15.094 50.863 15.149 50.787 L 15.254 50.641 C 15.314 50.56 15.37 50.483 15.428 50.409 L 15.448 50.382 C 15.455 50.373 15.462 50.365 15.469 50.357 C 17.327 47.986 20.096 46.476 23.072 46.212 C 23.343 46.188 23.589 46.37 23.646 46.636 C 23.678 46.787 23.739 46.921 23.827 47.032 L 24.789 48.256 C 25.687 49.396 26.925 50.199 28.277 50.515 C 28.469 50.561 28.666 50.599 28.861 50.629 C 31.078 50.96 33.336 50.029 34.755 48.199 L 36.159 46.386 C 36.266 46.248 36.433 46.171 36.607 46.178 C 40.387 46.333 43.875 48.505 45.709 51.846 C 45.709 51.846 45.726 51.876 45.726 51.876 C 45.789 51.992 45.85 52.108 45.908 52.226 L 45.945 52.3 C 45.999 52.411 46.052 52.523 46.103 52.636 L 46.137 52.715 C 46.193 52.842 46.24 52.954 46.286 53.067 L 46.319 53.155 C 46.452 53.499 46.568 53.849 46.666 54.204 L 46.68 54.255 C 46.694 54.304 46.708 54.353 46.721 54.403 C 46.738 54.47 46.754 54.539 46.77 54.608 L 46.779 54.649 C 46.798 54.73 46.816 54.811 46.833 54.892 C 46.85 54.97 46.864 55.048 46.878 55.126 C 46.895 55.215 46.911 55.304 46.925 55.394 C 46.937 55.469 46.948 55.543 46.958 55.618 C 46.972 55.715 46.984 55.813 46.995 55.911 L 46.997 55.937 C 47.004 55.997 47.011 56.057 47.016 56.118 C 47.027 56.229 47.034 56.34 47.041 56.453 L 47.045 56.507 C 47.048 56.547 47.051 56.587 47.052 56.628 C 47.06 56.797 47.065 56.969 47.065 57.141 L 47.065 59.23 C 47.064 59.528 46.823 59.769 46.525 59.769 Z M 14.208 58.691 L 45.986 58.691 L 45.986 57.142 C 45.986 56.985 45.982 56.831 45.975 56.676 L 45.965 56.519 C 45.959 56.418 45.952 56.317 45.943 56.217 C 45.938 56.164 45.932 56.111 45.926 56.058 L 45.923 56.03 C 45.913 55.942 45.902 55.854 45.89 55.765 C 45.881 55.698 45.871 55.631 45.86 55.565 C 45.847 55.484 45.833 55.403 45.818 55.322 C 45.806 55.252 45.792 55.182 45.778 55.112 C 45.762 55.039 45.746 54.966 45.729 54.892 L 45.719 54.851 C 45.705 54.79 45.691 54.73 45.676 54.67 C 45.666 54.629 45.654 54.588 45.642 54.547 L 45.627 54.492 C 45.538 54.171 45.434 53.855 45.314 53.544 L 45.284 53.466 C 45.243 53.364 45.2 53.262 45.156 53.162 L 45.119 53.077 C 45.073 52.976 45.026 52.875 44.977 52.775 L 44.943 52.708 C 44.891 52.601 44.836 52.496 44.779 52.393 L 45.236 52.106 L 44.764 52.365 C 43.155 49.434 40.136 47.501 36.837 47.27 L 35.606 48.86 C 33.949 50.998 31.303 52.084 28.701 51.694 L 28.7 51.694 C 28.475 51.66 28.252 51.617 28.03 51.565 C 26.442 51.193 24.99 50.255 23.941 48.922 L 22.98 47.699 C 22.891 47.585 22.814 47.462 22.751 47.331 C 20.22 47.667 17.887 49.005 16.298 51.045 C 16.294 51.05 16.289 51.055 16.285 51.061 L 16.281 51.066 C 16.226 51.136 16.176 51.205 16.125 51.274 L 16.026 51.409 C 15.978 51.478 15.931 51.548 15.884 51.618 C 15.773 51.783 15.667 51.952 15.566 52.124 C 15.526 52.193 15.485 52.264 15.445 52.335 L 15.359 52.497 C 15.321 52.568 15.284 52.639 15.247 52.71 C 15.225 52.754 15.205 52.798 15.184 52.842 L 15.138 52.942 C 15.113 52.993 15.088 53.044 15.065 53.095 C 15.043 53.145 15.022 53.195 15.002 53.245 L 14.977 53.305 C 14.93 53.417 14.885 53.53 14.842 53.644 L 14.824 53.69 C 14.801 53.752 14.777 53.814 14.756 53.878 C 14.74 53.921 14.727 53.964 14.713 54.008 L 14.685 54.096 C 14.663 54.162 14.642 54.228 14.622 54.295 C 14.606 54.348 14.591 54.404 14.576 54.459 C 14.576 54.459 14.568 54.485 14.568 54.485 C 14.547 54.564 14.525 54.642 14.506 54.719 C 14.49 54.783 14.475 54.848 14.46 54.913 C 14.442 54.993 14.425 55.073 14.408 55.154 C 14.395 55.216 14.383 55.281 14.371 55.345 C 14.356 55.429 14.342 55.513 14.329 55.597 C 14.319 55.661 14.31 55.723 14.301 55.786 C 14.289 55.874 14.279 55.964 14.269 56.054 L 14.263 56.104 C 14.259 56.146 14.254 56.188 14.25 56.232 C 14.241 56.332 14.234 56.432 14.229 56.533 L 14.219 56.684 C 14.212 56.836 14.208 56.989 14.208 57.142 L 14.208 58.691 Z M 14.208 58.691" fill="rgb(55,98,204)"></path><path d="M 44.275 19.319 C 44.447 20.227 44.533 21.149 44.534 22.073 L 44.534 23.47 C 44.565 23.469 44.595 23.465 44.627 23.465 C 45.787 23.465 46.841 23.912 47.637 24.64 L 47.637 19.319 Z M 44.275 19.319" fill="rgb(70,113,198)"></path><path d="M 44.627 23.465 C 44.596 23.465 44.565 23.469 44.534 23.47 L 44.534 22.074 C 44.534 13.911 37.959 7.295 29.849 7.295 C 21.738 7.295 15.163 13.911 15.163 22.074 L 15.163 23.47 C 15.132 23.469 15.102 23.465 15.07 23.465 C 12.596 23.465 10.59 25.484 10.59 27.974 C 10.59 30.464 12.596 32.482 15.07 32.482 C 15.233 32.482 15.393 32.473 15.551 32.456 C 17.066 38.994 22.89 43.866 29.849 43.866 C 36.807 43.866 42.631 38.994 44.146 32.456 C 44.306 32.473 44.466 32.482 44.627 32.482 C 47.101 32.482 49.107 30.464 49.107 27.974 C 49.107 25.484 47.101 23.465 44.627 23.465 Z M 44.627 23.465" fill="rgb(249,207,207)"></path><g transform="translate(10.051 6.756)"><path d="M 12.045 21.798 C 11.22 21.798 10.551 21.13 10.551 20.305 L 10.551 17.782 C 10.551 16.957 11.22 16.287 12.045 16.287 C 12.87 16.287 13.538 16.957 13.538 17.782 L 13.538 20.305 C 13.538 21.13 12.87 21.798 12.045 21.798 Z M 27.55 21.798 C 26.725 21.798 26.056 21.13 26.056 20.305 L 26.056 17.782 C 26.056 16.957 26.725 16.287 27.55 16.287 C 28.375 16.287 29.043 16.957 29.043 17.782 L 29.043 20.305 C 29.043 21.13 28.374 21.798 27.55 21.798 Z M 19.797 29.949 C 17.672 29.949 15.943 28.377 15.943 26.445 C 15.943 26.147 16.184 25.906 16.481 25.906 C 16.779 25.906 17.02 26.147 17.02 26.445 C 17.02 27.783 18.266 28.872 19.797 28.872 C 21.328 28.872 22.574 27.783 22.574 26.445 C 22.574 26.147 22.815 25.906 23.112 25.906 C 23.41 25.906 23.651 26.147 23.651 26.445 C 23.651 28.377 21.922 29.949 19.797 29.949 Z M 19.797 29.949" fill="rgb(55,98,204)"></path><path d="M 19.797 37.648 C 12.836 37.648 6.85 32.99 5.085 26.264 C 5.063 26.265 5.041 26.265 5.019 26.265 C 2.252 26.265 0 24.001 0 21.218 C 0 18.586 2.014 16.417 4.573 16.19 L 4.573 15.317 C 4.573 6.871 11.402 0 19.797 0 C 28.191 0 35.021 6.872 35.021 15.317 L 35.021 16.19 C 37.58 16.417 39.594 18.586 39.594 21.218 C 39.594 24.001 37.343 26.265 34.575 26.265 C 34.553 26.265 34.531 26.265 34.51 26.264 C 32.745 32.99 26.758 37.648 19.797 37.648 Z M 5.5 25.161 C 5.751 25.161 5.968 25.334 6.025 25.578 C 7.525 32.05 13.188 36.57 19.798 36.57 C 26.407 36.57 32.07 32.05 33.57 25.578 C 33.631 25.312 33.881 25.135 34.152 25.164 C 34.3 25.18 34.439 25.187 34.576 25.187 C 36.749 25.187 38.517 23.407 38.517 21.218 C 38.517 19.03 36.75 17.25 34.579 17.248 C 34.54 17.25 34.519 17.252 34.496 17.252 C 34.341 17.261 34.21 17.201 34.107 17.099 C 34.003 16.998 33.944 16.859 33.944 16.714 L 33.944 15.317 C 33.944 7.466 27.598 1.078 19.797 1.078 C 11.996 1.078 5.651 7.466 5.651 15.317 L 5.651 16.714 C 5.651 16.859 5.592 16.998 5.488 17.099 C 5.384 17.201 5.244 17.263 5.098 17.253 C 5.076 17.252 5.054 17.25 5.032 17.249 L 5.031 17.249 C 2.844 17.249 1.077 19.029 1.077 21.218 C 1.077 23.407 2.846 25.187 5.019 25.187 C 5.155 25.187 5.294 25.18 5.442 25.164 C 5.462 25.162 5.481 25.161 5.5 25.161 Z M 5.5 25.161" fill="rgb(55,98,204)"></path><path d="M 37.585 18.424 C 37.453 18.424 37.323 18.375 37.222 18.283 C 36.492 17.615 35.553 17.248 34.576 17.248 C 34.54 17.25 34.518 17.252 34.496 17.252 C 34.341 17.261 34.21 17.201 34.106 17.099 C 34.002 16.998 33.944 16.859 33.944 16.714 L 33.944 15.317 C 33.944 14.436 33.86 13.543 33.695 12.663 C 33.665 12.505 33.707 12.343 33.81 12.219 C 33.912 12.096 34.064 12.025 34.224 12.025 L 37.585 12.025 C 37.882 12.025 38.124 12.266 38.124 12.564 L 38.124 17.885 C 38.124 18.028 38.067 18.165 37.966 18.266 C 37.865 18.367 37.728 18.424 37.585 18.424 Z M 35.021 16.19 C 35.734 16.254 36.425 16.472 37.046 16.828 L 37.046 13.102 L 34.86 13.102 C 34.967 13.835 35.02 14.576 35.021 15.317 Z M 35.021 16.19" fill="rgb(55,98,204)"></path></g><path d="M 12.149 19.319 L 12.149 24.56 C 12.934 23.879 13.954 23.465 15.071 23.465 C 15.102 23.465 15.132 23.469 15.163 23.47 L 15.163 22.074 C 15.163 21.132 15.254 20.212 15.422 19.32 L 12.15 19.32 Z M 12.149 19.319" fill="rgb(70,113,198)"></path><path d="M 12.149 25.098 C 12.072 25.098 11.996 25.082 11.926 25.049 C 11.734 24.962 11.611 24.771 11.611 24.56 L 11.611 19.319 C 11.611 19.022 11.852 18.78 12.149 18.78 L 15.422 18.78 C 15.582 18.781 15.733 18.852 15.836 18.975 C 15.938 19.099 15.98 19.261 15.951 19.419 C 15.786 20.294 15.703 21.183 15.702 22.073 L 15.702 23.47 C 15.702 23.615 15.643 23.754 15.539 23.855 C 15.436 23.957 15.298 24.018 15.15 24.008 C 15.128 24.008 15.106 24.007 15.084 24.005 L 15.079 24.005 C 14.133 24.004 13.218 24.345 12.503 24.966 C 12.405 25.051 12.279 25.098 12.149 25.098 Z M 12.688 19.858 L 12.688 23.534 C 13.287 23.208 13.946 23.008 14.624 22.946 L 14.624 22.073 C 14.624 21.338 14.678 20.595 14.785 19.858 Z M 12.688 19.858" fill="rgb(55,98,204)"></path><path d="M 16.487 15.946 C 15.699 17.684 15.235 19.601 15.174 21.621 L 44.523 21.621 C 44.462 19.601 43.998 17.684 43.21 15.947 Z M 16.487 15.946" fill="rgb(249,167,167)"></path><path d="M 29.849 44.404 C 22.887 44.404 16.901 39.746 15.136 33.02 C 15.114 33.021 15.092 33.021 15.07 33.021 C 12.303 33.021 10.051 30.757 10.051 27.974 C 10.051 25.342 12.065 23.174 14.624 22.946 L 14.624 22.073 C 14.624 13.627 21.454 6.756 29.849 6.756 C 38.243 6.756 45.072 13.628 45.072 22.073 L 45.072 22.946 C 47.632 23.174 49.645 25.342 49.645 27.974 C 49.645 30.757 47.394 33.021 44.626 33.021 C 44.605 33.021 44.583 33.021 44.561 33.02 C 42.796 39.746 36.81 44.404 29.849 44.404 Z M 15.551 31.917 C 15.802 31.917 16.019 32.09 16.076 32.334 C 17.576 38.806 23.24 43.327 29.849 43.327 C 36.458 43.327 42.122 38.807 43.622 32.334 C 43.683 32.069 43.933 31.891 44.203 31.92 C 44.352 31.936 44.49 31.943 44.627 31.943 C 46.8 31.943 48.568 30.163 48.568 27.974 C 48.568 25.786 46.802 24.006 44.63 24.004 C 44.591 24.007 44.57 24.008 44.548 24.009 C 44.393 24.018 44.262 23.957 44.158 23.855 C 44.054 23.754 43.995 23.615 43.995 23.47 L 43.995 22.074 C 43.995 14.222 37.649 7.834 29.849 7.834 C 22.048 7.834 15.702 14.222 15.702 22.074 L 15.702 23.47 C 15.702 23.615 15.643 23.754 15.539 23.856 C 15.435 23.958 15.295 24.019 15.15 24.009 C 15.128 24.008 15.106 24.007 15.083 24.005 L 15.082 24.005 C 12.896 24.005 11.129 25.786 11.129 27.974 C 11.129 30.163 12.897 31.944 15.07 31.944 C 15.206 31.944 15.345 31.936 15.494 31.92 C 15.513 31.918 15.533 31.917 15.551 31.917 Z M 15.551 31.917" fill="rgb(55,98,204)"></path><path d="M 44.523 22.16 L 15.174 22.16 C 15.029 22.16 14.889 22.102 14.788 21.997 C 14.686 21.893 14.632 21.751 14.636 21.606 C 14.697 19.558 15.155 17.58 15.996 15.724 C 16.084 15.532 16.276 15.408 16.487 15.408 L 43.21 15.408 C 43.421 15.408 43.613 15.532 43.7 15.724 C 44.541 17.58 44.999 19.559 45.061 21.606 C 45.065 21.751 45.01 21.892 44.909 21.997 C 44.808 22.101 44.668 22.16 44.523 22.16 Z M 15.74 21.083 L 43.957 21.083 C 43.851 19.5 43.479 17.946 42.858 16.486 L 16.839 16.486 C 16.218 17.946 15.846 19.5 15.74 21.083 Z M 15.74 21.083" fill="rgb(55,98,204)"></path><path d="M 40.536 19.319 L 48.174 19.319 C 48.739 19.319 49.197 18.861 49.197 18.296 L 49.197 12.452 C 49.197 5.953 43.93 0.685 37.434 0.685 L 37.069 0.685 C 35.374 0.685 34 2.059 34 3.754 L 34 12.781 C 34 16.392 36.927 19.319 40.536 19.319 Z M 40.536 19.319" fill="rgb(70,113,198)"></path><path d="M 30.965 0.685 L 23.27 0.685 C 16.217 0.685 10.499 6.404 10.499 13.459 L 10.499 18.292 C 10.499 18.565 10.608 18.826 10.8 19.019 C 10.993 19.211 11.254 19.319 11.527 19.319 L 18.399 19.319 C 19.46 19.319 20.51 19.131 21.502 18.756 C 23.354 18.055 26.117 16.571 27.778 13.625 C 27.778 13.625 26.437 17.565 25.408 18.89 C 25.275 19.061 25.409 19.304 25.625 19.286 C 30.333 18.886 34.03 14.936 34.03 10.122 L 34.03 3.75 C 34.03 2.057 32.658 0.685 30.965 0.685 Z M 30.965 0.685" fill="rgb(70,113,198)"></path><path d="M 48.174 19.858 L 40.536 19.858 C 36.635 19.858 33.462 16.684 33.462 12.781 L 33.462 3.754 C 33.462 1.764 35.08 0.146 37.069 0.146 L 37.434 0.146 C 44.217 0.146 49.736 5.666 49.736 12.452 L 49.736 18.296 C 49.736 19.157 49.036 19.858 48.174 19.858 Z M 37.069 1.223 C 35.674 1.223 34.539 2.359 34.539 3.755 L 34.539 12.781 C 34.539 16.089 37.229 18.78 40.536 18.78 L 48.174 18.78 C 48.442 18.78 48.659 18.563 48.659 18.296 L 48.659 12.452 C 48.659 6.261 43.623 1.223 37.434 1.223 Z M 37.069 1.223" fill="rgb(55,98,204)"></path><path d="M 18.398 19.858 L 11.527 19.858 C 10.663 19.858 9.961 19.155 9.961 18.292 L 9.961 13.459 C 9.961 6.118 15.931 0.146 23.27 0.146 L 30.965 0.146 C 32.952 0.146 34.569 1.763 34.569 3.75 L 34.569 10.122 C 34.569 15.138 30.66 19.399 25.67 19.823 C 25.359 19.849 25.062 19.69 24.912 19.415 C 24.763 19.141 24.791 18.805 24.983 18.559 C 25.305 18.144 25.668 17.435 26.007 16.677 C 24.578 17.968 22.985 18.77 21.693 19.26 C 20.643 19.657 19.535 19.858 18.399 19.858 Z M 23.27 1.223 C 16.525 1.223 11.038 6.712 11.038 13.459 L 11.038 18.292 C 11.038 18.561 11.258 18.78 11.527 18.78 L 18.399 18.78 C 19.404 18.78 20.384 18.603 21.311 18.252 C 23.19 17.541 25.755 16.115 27.309 13.359 C 27.445 13.117 27.744 13.018 27.998 13.132 C 28.252 13.246 28.378 13.534 28.288 13.798 C 28.238 13.944 27.185 17.02 26.2 18.673 C 30.336 18.013 33.492 14.372 33.492 10.122 L 33.492 3.75 C 33.492 2.357 32.359 1.223 30.966 1.223 Z M 23.27 1.223" fill="rgb(55,98,204)"></path><path d="M 29.849 43.865 C 27.407 43.865 25.106 43.264 23.081 42.203 L 23.119 46.749 C 23.167 46.972 23.261 47.184 23.404 47.366 L 24.365 48.589 C 25.323 49.806 26.651 50.688 28.154 51.04 C 28.356 51.087 28.565 51.128 28.781 51.161 C 31.222 51.527 33.663 50.487 35.181 48.529 L 36.585 46.717 C 36.596 46.717 36.606 46.718 36.616 46.719 L 36.616 42.203 C 34.591 43.264 32.29 43.865 29.849 43.865 Z M 29.849 43.865" fill="rgb(249,207,207)"></path><path d="M 29.752 51.772 C 29.4 51.772 29.049 51.746 28.701 51.693 C 28.477 51.66 28.251 51.617 28.031 51.565 C 26.442 51.193 24.99 50.254 23.942 48.921 L 22.98 47.699 C 22.79 47.457 22.659 47.175 22.592 46.861 C 22.584 46.826 22.58 46.789 22.58 46.753 L 22.543 42.207 C 22.541 42.017 22.639 41.841 22.801 41.742 C 22.962 41.643 23.164 41.637 23.332 41.725 C 25.359 42.788 27.552 43.327 29.849 43.327 C 32.146 43.327 34.339 42.788 36.366 41.725 C 36.533 41.638 36.734 41.645 36.895 41.742 C 37.056 41.84 37.155 42.014 37.155 42.203 L 37.155 46.719 C 37.155 46.897 37.067 47.063 36.92 47.164 L 35.606 48.859 C 34.172 50.71 31.998 51.772 29.752 51.772 Z M 23.657 46.684 C 23.689 46.811 23.746 46.93 23.827 47.033 L 24.788 48.256 C 25.685 49.396 26.924 50.199 28.276 50.516 C 28.469 50.561 28.664 50.599 28.861 50.629 C 31.077 50.96 33.336 50.03 34.754 48.199 L 36.077 46.492 L 36.077 43.064 C 34.119 43.946 31.996 44.403 29.849 44.404 C 27.704 44.403 25.583 43.947 23.627 43.067 Z M 23.657 46.684" fill="rgb(55,98,204)"></path><path d="M 39.847 52.873 C 37.722 51.603 35.293 50.932 32.818 50.932 L 26.879 50.932 C 24.404 50.932 21.975 51.603 19.85 52.873 C 18.792 53.505 18.145 54.647 18.145 55.88 L 18.145 59.23 L 41.553 59.23 L 41.553 55.88 C 41.553 54.647 40.905 53.505 39.847 52.873 Z M 39.847 52.873" fill="rgb(224,235,252)"></path><path d="M 41.553 59.769 L 18.145 59.769 C 17.847 59.769 17.606 59.528 17.606 59.23 L 17.606 55.88 C 17.606 54.465 18.36 53.136 19.574 52.41 C 21.782 51.091 24.307 50.394 26.879 50.393 L 32.818 50.393 C 35.39 50.394 37.915 51.091 40.123 52.41 L 40.124 52.41 C 41.337 53.136 42.092 54.465 42.092 55.88 L 42.092 59.23 C 42.091 59.528 41.85 59.769 41.553 59.769 Z M 18.683 58.691 L 41.014 58.691 L 41.014 55.88 C 41.014 54.842 40.461 53.868 39.571 53.336 C 37.53 52.115 35.196 51.471 32.818 51.471 L 26.879 51.471 C 24.501 51.471 22.167 52.115 20.126 53.336 C 19.236 53.868 18.683 54.842 18.683 55.88 Z M 18.683 58.691" fill="rgb(55,98,204)"></path><path d="M 65.461 52.855 C 65.461 59.699 59.915 65.247 53.073 65.247 C 46.232 65.247 40.686 59.699 40.686 52.855 C 40.686 46.012 46.232 40.463 53.073 40.463 C 59.915 40.463 65.461 46.012 65.461 52.855 Z M 65.461 52.855" fill="rgb(249,167,167)"></path><path d="M 62.23 52.855 C 62.23 57.914 58.131 62.014 53.073 62.014 C 48.017 62.014 43.917 57.914 43.917 52.855 C 43.917 47.797 48.017 43.696 53.073 43.696 C 58.131 43.696 62.23 47.797 62.23 52.855 Z M 62.23 52.855" fill="rgb(255,234,146)"></path><path d="M 51.078 60.672 C 50.835 60.672 50.598 60.603 50.394 60.472 C 49.799 60.094 49.624 59.305 50.002 58.71 L 53.008 53.986 L 51.764 53.986 C 51.157 53.987 50.6 53.652 50.316 53.116 C 50.03 52.581 50.063 51.931 50.402 51.428 L 54.273 45.673 C 54.667 45.088 55.46 44.933 56.045 45.326 C 56.629 45.72 56.784 46.513 56.391 47.098 L 53.475 51.433 L 54.668 51.433 C 55.267 51.433 55.818 51.76 56.106 52.285 C 56.395 52.81 56.374 53.45 56.052 53.955 L 52.156 60.081 C 51.921 60.449 51.514 60.672 51.078 60.672 Z M 51.078 60.672" fill="rgb(249,167,167)"></path><path d="M 2.121 19.777 L 6.335 13.227 C 6.584 12.84 7.15 12.84 7.399 13.227 L 11.614 19.777 Z M 6.868 19.777 L 2.121 19.777 L 3.149 52.285 L 6.868 52.285 Z M 6.868 19.777 L 11.614 19.777 L 10.586 52.285 L 6.868 52.285 Z M 6.868 19.777" fill="rgb(224,235,252)"></path><path d="M 11.614 20.316 L 2.121 20.316 C 1.924 20.316 1.743 20.209 1.648 20.036 C 1.554 19.862 1.562 19.652 1.668 19.486 L 5.882 12.936 C 6.097 12.6 6.469 12.397 6.868 12.399 C 7.266 12.398 7.637 12.6 7.852 12.936 L 12.067 19.486 C 12.173 19.652 12.181 19.863 12.087 20.036 C 11.992 20.209 11.811 20.316 11.614 20.316 Z M 3.108 19.239 L 10.627 19.239 L 6.947 13.519 C 6.93 13.492 6.9 13.476 6.868 13.476 C 6.836 13.476 6.806 13.492 6.788 13.519 Z M 3.108 19.239" fill="rgb(55,98,204)"></path><path d="M 6.868 52.824 L 3.149 52.824 C 2.858 52.824 2.62 52.593 2.611 52.302 L 1.583 19.795 C 1.578 19.649 1.633 19.508 1.734 19.403 C 1.836 19.298 1.975 19.239 2.121 19.239 L 6.868 19.239 C 7.165 19.239 7.406 19.48 7.406 19.777 L 7.406 52.285 C 7.406 52.582 7.165 52.824 6.868 52.824 Z M 3.671 51.746 L 6.329 51.746 L 6.329 20.316 L 2.677 20.316 Z M 3.671 51.746" fill="rgb(55,98,204)"></path><path d="M 10.586 52.824 L 6.868 52.824 C 6.57 52.824 6.329 52.582 6.329 52.285 L 6.329 19.777 C 6.329 19.48 6.57 19.239 6.868 19.239 L 11.614 19.239 C 11.76 19.239 11.899 19.298 12.001 19.403 C 12.102 19.508 12.157 19.649 12.153 19.795 L 11.124 52.302 C 11.115 52.593 10.877 52.824 10.586 52.824 Z M 7.406 51.746 L 10.063 51.746 L 11.058 20.316 L 7.406 20.316 Z M 7.406 51.746" fill="rgb(55,98,204)"></path><path d="M 12.563 55.45 L 1.171 55.45 C 0.822 55.45 0.539 55.167 0.539 54.817 L 0.539 52.918 C 0.539 52.568 0.822 52.285 1.171 52.285 L 12.563 52.285 C 12.731 52.285 12.892 52.351 13.011 52.47 C 13.129 52.589 13.196 52.75 13.196 52.918 L 13.196 54.817 C 13.196 55.167 12.913 55.45 12.563 55.45 Z M 3.703 55.45 L 3.703 61.781 C 3.703 63.529 5.12 64.946 6.868 64.946 C 8.615 64.946 10.032 63.529 10.032 61.781 L 10.032 55.45 Z M 3.703 55.45" fill="rgb(234,169,125)"></path><path d="M 12.563 55.989 L 1.171 55.989 C 0.525 55.989 0 55.463 0 54.817 L 0 52.917 C 0 52.272 0.525 51.745 1.171 51.745 L 12.563 51.745 C 13.209 51.745 13.735 52.271 13.735 52.917 L 13.735 54.817 C 13.735 55.463 13.209 55.989 12.563 55.989 Z M 1.171 52.824 C 1.146 52.824 1.122 52.834 1.105 52.851 C 1.087 52.869 1.077 52.893 1.077 52.918 L 1.077 54.817 C 1.077 54.869 1.119 54.911 1.171 54.911 L 12.563 54.911 C 12.615 54.911 12.658 54.869 12.658 54.817 L 12.658 52.918 C 12.658 52.866 12.615 52.824 12.563 52.824 Z M 1.171 52.824" fill="rgb(55,98,204)"></path><path d="M 6.868 65.485 C 4.826 65.485 3.165 63.823 3.165 61.781 L 3.165 55.45 C 3.165 55.153 3.406 54.911 3.703 54.911 L 10.032 54.911 C 10.329 54.911 10.571 55.153 10.571 55.45 L 10.571 61.781 C 10.571 63.823 8.909 65.485 6.868 65.485 Z M 4.242 55.989 L 4.242 61.781 C 4.242 63.229 5.42 64.407 6.868 64.407 C 8.315 64.407 9.493 63.229 9.493 61.781 L 9.493 55.989 Z M 4.242 55.989" fill="rgb(55,98,204)"></path></svg>